<svg xmlns="http://www.w3.org/2000/svg" width="43" height="43" viewBox="0 0 43 43"><g transform="translate(-1662 -4809)"><rect width="43" height="43" transform="translate(1662 4809)" fill="#fff" opacity="0"/><path d="M14.344.457C7.13.457,0,4.686,0,11.53c0,4.353,2.784,6.826,4.472,6.826.7,0,1.1-1.706,1.1-2.189,0-.575-1.666-1.8-1.666-4.192,0-4.971,4.3-8.5,9.872-8.5,4.788,0,8.332,2.393,8.332,6.789,0,3.283-1.5,9.441-6.349,9.441-1.751,0-3.248-1.113-3.248-2.708,0-2.337,1.856-4.6,1.856-7.011,0-4.093-6.6-3.351-6.6,1.6a6.506,6.506,0,0,0,.675,3.135c-.97,3.673-2.953,9.144-2.953,12.928A32.445,32.445,0,0,0,5.8,31.136c.239.235.12.21.485.093,3.544-4.266,3.417-5.1,5.02-10.684.865,1.447,3.1,2.226,4.873,2.226C23.646,22.77,27,16.371,27,10.6,27,4.463,20.967.457,14.344.457Z" transform="translate(1670 4814.543)"/></g></svg>