<svg xmlns="http://www.w3.org/2000/svg" width="40" height="40" viewBox="0 0 40 40"><g transform="translate(-1835 -4803)"><rect width="40" height="40" transform="translate(1835 4803)" fill="none"/><path d="M27.952,79.921A3.575,3.575,0,0,0,25.428,77.4c-2.227-.6-11.154-.6-11.154-.6s-8.927,0-11.154.6A3.575,3.575,0,0,0,.6,79.921a39.879,39.879,0,0,0,0,13.743A3.575,3.575,0,0,0,3.12,96.187c2.227.6,11.154.6,11.154.6s8.927,0,11.154-.6a3.575,3.575,0,0,0,2.524-2.524,37.158,37.158,0,0,0,.6-6.871,37.162,37.162,0,0,0-.6-6.872ZM11.419,91.074V82.51l7.417,4.282-7.417,4.282Z" transform="translate(1841 4736.2)"/></g></svg>