<svg xmlns="http://www.w3.org/2000/svg" width="43" height="43" viewBox="0 0 43 43"><g transform="translate(-1733 -4812)"><rect width="43" height="43" transform="translate(1733 4812)" fill="#fff" opacity="0"/><path d="M7.051,28.859H.52V9.592H7.051ZM3.782,6.964A3.661,3.661,0,0,1,0,3.466,3.634,3.634,0,0,1,3.782,0,3.634,3.634,0,0,1,7.564,3.466,3.661,3.661,0,0,1,3.782,6.964Zm27.711,21.9H24.976V19.48c0-2.235-.049-5.1-3.4-5.1-3.4,0-3.916,2.429-3.916,4.941v9.54H11.142V9.592h6.263V12.22H17.5a7,7,0,0,1,6.179-3.111c6.609,0,7.824,3.987,7.824,9.167V28.859Z" transform="translate(1739 4819)"/></g></svg>