<svg xmlns="http://www.w3.org/2000/svg" width="210.452" height="103.811" viewBox="0 0 210.452 103.811">
  <g id="INNERSPACE_LOGO" data-name="INNERSPACE LOGO" transform="translate(0.847 0) rotate(0.5)">
    <path id="Path_1" data-name="Path 1" d="M100.638,102.275l-99.96.662L.448,68.644l1.621-.01.214,32.672,96.723-.636L98.35,1.632,1.632,2.273l.177,27.116L.188,29.4,0,.662,99.96,0Z" transform="translate(0.051 0)" fill="#fff"/>
    <path id="Path_2" data-name="Path 2" d="M1.125,0a1.147,1.147,0,1,1-.8.344A1.1,1.1,0,0,1,1.125,0M.453,4.441H1.839l.073,10.779H.526Z" transform="translate(0 41.799)" fill="#fff"/>
    <path id="Path_3" data-name="Path 3" d="M0,.309H1.387V2.237A5.817,5.817,0,0,1,3.221.564,4.518,4.518,0,0,1,5.416,0,3.81,3.81,0,0,1,7.563.6,3.649,3.649,0,0,1,8.955,2.242a8.715,8.715,0,0,1,.469,3.237l.037,5.546H8.074l-.036-5.14A12.839,12.839,0,0,0,7.866,3.4a2.747,2.747,0,0,0-.938-1.605A2.793,2.793,0,0,0,5.14,1.273a3.43,3.43,0,0,0-2.252.85,3.91,3.91,0,0,0-1.3,2.085,14.287,14.287,0,0,0-.177,2.935l.026,3.951H.052Z" transform="translate(15.668 45.833)" fill="#fff"/>
    <path id="Path_4" data-name="Path 4" d="M0,.309H1.387V2.237A5.817,5.817,0,0,1,3.221.564,4.519,4.519,0,0,1,5.416,0,3.81,3.81,0,0,1,7.563.6,3.649,3.649,0,0,1,8.955,2.243a8.715,8.715,0,0,1,.469,3.237l.036,5.546H8.074L8.038,5.886A12.841,12.841,0,0,0,7.866,3.4a2.747,2.747,0,0,0-.938-1.605A2.794,2.794,0,0,0,5.14,1.273a3.43,3.43,0,0,0-2.252.85,3.909,3.909,0,0,0-1.3,2.085,14.288,14.288,0,0,0-.177,2.935l.026,3.951H.052Z" transform="translate(38.999 45.676)" fill="#fff"/>
    <path id="Path_5" data-name="Path 5" d="M9.607,7.483l1.173.6a6.344,6.344,0,0,1-1.314,1.83A5.279,5.279,0,0,1,7.778,10.96a5.921,5.921,0,0,1-2.127.375,5.15,5.15,0,0,1-4.139-1.7A5.832,5.832,0,0,1,0,5.737,5.765,5.765,0,0,1,1.236,2.089,5.15,5.15,0,0,1,5.495,0,5.311,5.311,0,0,1,9.91,2.089a5.837,5.837,0,0,1,1.214,3.68l-9.7.062A4.389,4.389,0,0,0,2.643,8.9a3.831,3.831,0,0,0,2.877,1.183,4.634,4.634,0,0,0,1.6-.3A4.249,4.249,0,0,0,8.44,9.016,6.485,6.485,0,0,0,9.607,7.452m0-2.9a4.6,4.6,0,0,0-.818-1.767A3.821,3.821,0,0,0,7.376,1.739a4.3,4.3,0,0,0-1.835-.4A3.956,3.956,0,0,0,2.821,2.386,4.618,4.618,0,0,0,1.575,4.622Z" transform="translate(61.84 45.486)" fill="#fff"/>
    <path id="Path_6" data-name="Path 6" d="M0,.308H1.418V1.871A4.984,4.984,0,0,1,2.747.469,2.638,2.638,0,0,1,4.212,0a2.528,2.528,0,0,1,1.23.36L4.733,1.538A1.911,1.911,0,0,0,4,1.355a2.018,2.018,0,0,0-1.334.578,3.65,3.65,0,0,0-.969,1.778A16.826,16.826,0,0,0,1.46,7.438v3.649H.042Z" transform="translate(85.938 45.365)" fill="#fff"/>
    <path id="Path_7" data-name="Path 7" d="M7.616,1.79,5.9,3.521A2.9,2.9,0,0,0,3.982,2.478a1.209,1.209,0,0,0-.735.2.6.6,0,0,0-.261.521.61.61,0,0,0,.172.412A3.176,3.176,0,0,0,4,4.136l1.043.521A6.042,6.042,0,0,1,7.271,6.268a3.388,3.388,0,0,1-.459,4.426A4.17,4.17,0,0,1,3.9,11.7,4.644,4.644,0,0,1,0,9.828L1.7,7.946a4,4,0,0,0,1.157.917,2.547,2.547,0,0,0,1.173.344,1.4,1.4,0,0,0,.891-.271.771.771,0,0,0,.334-.615c0-.428-.412-.844-1.225-1.251l-.949-.464Q.375,5.262.36,3.218A2.95,2.95,0,0,1,1.366.956,3.685,3.685,0,0,1,3.972,0,4.519,4.519,0,0,1,7.621,1.821" transform="translate(107.445 44.945)" fill="#fff"/>
    <path id="Path_8" data-name="Path 8" d="M2.752.314V1.539A5.242,5.242,0,0,1,4.384.393,4.691,4.691,0,0,1,6.265,0a4.863,4.863,0,0,1,3.743,1.611,5.984,5.984,0,0,1,1.564,4.217A5.834,5.834,0,0,1,10.008,10a4.968,4.968,0,0,1-3.722,1.7,4.69,4.69,0,0,1-1.793-.328,5.523,5.523,0,0,1-1.658-1.11l.037,5.249H.1L0,.3ZM5.7,2.587A2.914,2.914,0,0,0,3.518,3.5a3.253,3.253,0,0,0-.855,2.361A3.352,3.352,0,0,0,3.55,8.258a2.893,2.893,0,0,0,2.194.9,2.835,2.835,0,0,0,2.148-.944,3.331,3.331,0,0,0,.86-2.382,3.3,3.3,0,0,0-.876-2.34,2.851,2.851,0,0,0-2.174-.9" transform="translate(127.534 44.769)" fill="#fff"/>
    <path id="Path_9" data-name="Path 9" d="M8.69.287h2.794l.073,11.134H8.763V10.243a5.558,5.558,0,0,1-1.632,1.131,4.621,4.621,0,0,1-1.783.354,4.957,4.957,0,0,1-3.743-1.647,5.843,5.843,0,0,1-1.6-4.17A5.983,5.983,0,0,1,1.5,1.674,4.847,4.847,0,0,1,5.187,0,4.693,4.693,0,0,1,7.069.37,5.123,5.123,0,0,1,8.706,1.5ZM5.766,2.6a2.825,2.825,0,0,0-2.148.928,3.294,3.294,0,0,0-.839,2.351,3.341,3.341,0,0,0,.886,2.366,2.82,2.82,0,0,0,2.153.917,2.877,2.877,0,0,0,2.174-.928,3.352,3.352,0,0,0,.85-2.4,3.248,3.248,0,0,0-.881-2.351,2.909,2.909,0,0,0-2.2-.886" transform="translate(150.932 44.598)" fill="#fff"/>
    <path id="Path_10" data-name="Path 10" d="M11.43,2.493,9.116,3.786a3.45,3.45,0,0,0-2.8-1.2,3.5,3.5,0,0,0-2.528.954,3.174,3.174,0,0,0-.954,2.4,3.08,3.08,0,0,0,.949,2.314,3.372,3.372,0,0,0,2.455.886,3.56,3.56,0,0,0,2.909-1.3l2.21,1.5A6,6,0,0,1,6.317,11.7,6.158,6.158,0,0,1,1.7,9.994,5.786,5.786,0,0,1,3.043.8,6.745,6.745,0,0,1,6.275,0,6.552,6.552,0,0,1,9.257.643,5.625,5.625,0,0,1,11.43,2.5" transform="translate(174.781 44.466)" fill="#fff"/>
    <path id="Path_11" data-name="Path 11" d="M11.68,6.631,2.7,6.688A2.986,2.986,0,0,0,3.747,8.57,3.253,3.253,0,0,0,5.9,9.258a3.727,3.727,0,0,0,2.684-1.11l2.361,1.089A5.574,5.574,0,0,1,8.865,11.1a6.6,6.6,0,0,1-2.909.615,5.76,5.76,0,0,1-4.279-1.626A5.619,5.619,0,0,1,0,5.958,5.807,5.807,0,0,1,1.62,1.715,5.51,5.51,0,0,1,5.728.006a5.734,5.734,0,0,1,4.29,1.658A6.078,6.078,0,0,1,11.711,6.1ZM8.871,4.452a2.81,2.81,0,0,0-1.1-1.506,3.174,3.174,0,0,0-1.892-.568,3.346,3.346,0,0,0-2.049.667A3.647,3.647,0,0,0,2.814,4.494Z" transform="translate(198.284 44.296)" fill="#fff"/>
    <path id="Path_12" data-name="Path 12" d="M.078,11.771,0,.017H2.439a12.42,12.42,0,0,1,3.831.4A5.114,5.114,0,0,1,8.96,2.5a6.318,6.318,0,0,1,.985,3.518,6.161,6.161,0,0,1-.74,3.128,4.895,4.895,0,0,1-1.965,2,7.474,7.474,0,0,1-3.414.662ZM1.2,10.651H2.554a12.666,12.666,0,0,0,3.383-.328A3.9,3.9,0,0,0,8.022,8.759a4.774,4.774,0,0,0,.74-2.747,5.029,5.029,0,0,0-.839-2.9,4.17,4.17,0,0,0-2.3-1.637A13.909,13.909,0,0,0,1.97,1.159H1.142Z" transform="translate(106.501 67.302)" fill="#fff"/>
    <path id="Path_13" data-name="Path 13" d="M0,.042H1.133L1.159,4.1a8.735,8.735,0,0,0,.172,2.043A2.294,2.294,0,0,0,2.254,7.4a2.8,2.8,0,0,0,1.616.453,2.726,2.726,0,0,0,1.564-.464A2.32,2.32,0,0,0,6.325,6.2a8.5,8.5,0,0,0,.151-2.137L6.45,0H7.591l.026,4.269a6.777,6.777,0,0,1-.4,2.711A3.217,3.217,0,0,1,5.965,8.413a4.628,4.628,0,0,1-4.238.026A3.2,3.2,0,0,1,.445,7.006,7.032,7.032,0,0,1,.007,4.233Z" transform="translate(129.633 70.187)" fill="#fff"/>
    <path id="Path_14" data-name="Path 14" d="M.078,12.062,0,0H1.121l.031,4.853a4.717,4.717,0,0,1,1.564-1.3,4.4,4.4,0,0,1,5.061.876A4.488,4.488,0,0,1,9.106,7.662a4.41,4.41,0,0,1-1.3,3.232,4.285,4.285,0,0,1-3.159,1.355,4.061,4.061,0,0,1-1.929-.443,4.488,4.488,0,0,1-1.532-1.355v1.6Zm4.467-.886A3.367,3.367,0,0,0,7.511,9.4a3.539,3.539,0,0,0,0-3.523,3.431,3.431,0,0,0-1.272-1.3,3.3,3.3,0,0,0-1.7-.459A3.5,3.5,0,0,0,2.8,4.6,3.257,3.257,0,0,0,1.538,5.869a3.6,3.6,0,0,0-.433,1.788,3.471,3.471,0,0,0,1.011,2.518,3.284,3.284,0,0,0,2.45,1" transform="translate(152.273 66.71)" fill="#fff"/>
    <path id="Path_15" data-name="Path 15" d="M9.014.2,9.071,8.9H7.966V7.4A4.785,4.785,0,0,1,6.4,8.7,4.415,4.415,0,0,1,1.33,7.825,4.488,4.488,0,0,1,0,4.578,4.4,4.4,0,0,1,1.3,1.356,4.29,4.29,0,0,1,4.463,0,4.1,4.1,0,0,1,6.4.444,4.4,4.4,0,0,1,7.935,1.8V.2ZM4.547,1.09A3.378,3.378,0,0,0,1.575,2.857,3.524,3.524,0,0,0,1.6,6.371a3.441,3.441,0,0,0,1.272,1.3,3.321,3.321,0,0,0,1.71.453,3.5,3.5,0,0,0,1.736-.474A3.242,3.242,0,0,0,7.575,6.386,3.588,3.588,0,0,0,8.008,4.6,3.462,3.462,0,0,0,7,2.086a3.294,3.294,0,0,0-2.455-1" transform="translate(176.155 69.633)" fill="#fff"/>
    <path id="Path_16" data-name="Path 16" d="M.912.01A.921.921,0,1,1,0,.933.9.9,0,0,1,.266.276.881.881,0,0,1,.912,0M.391,3.581H1.512l.057,8.694H.422Z" transform="translate(203.319 66.142)" fill="#fff"/>
  </g>
</svg>
