<svg xmlns="http://www.w3.org/2000/svg" width="167.592" height="66.752" viewBox="0 0 167.592 66.752"><g transform="translate(-876.32 -2403)"><path d="M2.229,16.8l9.563-9.562a1.681,1.681,0,0,1,2.384,0l1.589,1.589a1.681,1.681,0,0,1,0,2.384L8.993,18l6.778,6.778a1.681,1.681,0,0,1,0,2.384l-1.589,1.6a1.681,1.681,0,0,1-2.384,0L2.236,19.2A1.683,1.683,0,0,1,2.229,16.8Z" transform="translate(888.266 2396.253)" fill="#636363"/><path d="M10.032.12a8.027,8.027,0,0,0,5.976-2.352l-.768-.792a7.053,7.053,0,0,1-5.16,2.016A7.3,7.3,0,0,1,2.544-8.4a7.3,7.3,0,0,1,7.536-7.392A7.032,7.032,0,0,1,15.24-13.8l.768-.792a8.009,8.009,0,0,0-5.976-2.328A8.391,8.391,0,0,0,1.32-8.4,8.391,8.391,0,0,0,10.032.12Zm9.7-.12h1.2V-17.808h-1.2Zm6.864-15.576a.973.973,0,0,0,.984-.984.968.968,0,0,0-.984-.96.988.988,0,0,0-.984.984A.968.968,0,0,0,26.592-15.576ZM25.992,0h1.2V-12.528h-1.2ZM37.224.1a5.555,5.555,0,0,0,4.752-2.3l-.888-.648A4.573,4.573,0,0,1,37.224-.984a4.973,4.973,0,0,1-5.112-5.28,4.973,4.973,0,0,1,5.112-5.28,4.573,4.573,0,0,1,3.864,1.872l.888-.648a5.5,5.5,0,0,0-4.752-2.3,6.106,6.106,0,0,0-6.336,6.36A6.12,6.12,0,0,0,37.224.1ZM55.152,0H56.64L50.712-7.464l5.4-5.064H54.576L46.56-5.208v-12.6h-1.2V0h1.2V-3.72L49.824-6.7ZM69.864-12.624a7.641,7.641,0,0,0-5.016,1.776l.6.864a6.5,6.5,0,0,1,4.32-1.584c2.448,0,3.72,1.248,3.72,3.576v1.008h-4.3c-3.48,0-4.68,1.608-4.68,3.5,0,2.136,1.7,3.576,4.512,3.576a4.812,4.812,0,0,0,4.512-2.328V0h1.152V-7.944C74.688-11.04,72.96-12.624,69.864-12.624ZM69.192-.888c-2.208,0-3.48-1.008-3.48-2.64,0-1.44.912-2.52,3.5-2.52h4.272V-3.7A4.294,4.294,0,0,1,69.192-.888Zm16.56-11.736a5.171,5.171,0,0,0-4.968,2.808v-2.712H79.632V0h1.2V-6.672c0-2.976,1.8-4.872,4.752-4.872,2.544,0,4.056,1.488,4.056,4.32V0h1.2V-7.32C90.84-10.824,88.8-12.624,85.752-12.624Zm19.992-5.184v8.184a5.616,5.616,0,0,0-5.112-3,6.059,6.059,0,0,0-6.192,6.36A6.072,6.072,0,0,0,100.632.1a5.557,5.557,0,0,0,5.136-3.048V0h1.176V-17.808ZM100.7-.984a4.97,4.97,0,0,1-5.04-5.28,4.97,4.97,0,0,1,5.04-5.28,4.97,4.97,0,0,1,5.04,5.28A4.97,4.97,0,0,1,100.7-.984Zm27.408-16.824v8.184a5.616,5.616,0,0,0-5.112-3,6.059,6.059,0,0,0-6.192,6.36A6.072,6.072,0,0,0,123,.1a5.557,5.557,0,0,0,5.136-3.048V0h1.176V-17.808ZM123.072-.984a4.97,4.97,0,0,1-5.04-5.28,4.97,4.97,0,0,1,5.04-5.28,4.97,4.97,0,0,1,5.04,5.28A4.97,4.97,0,0,1,123.072-.984Zm12.456-8.808v-2.736h-1.152V0h1.2V-6.528c0-3.1,1.656-4.944,4.44-4.944.1,0,.192.024.288.024v-1.176A4.757,4.757,0,0,0,135.528-9.792Zm12.312-2.832a7.641,7.641,0,0,0-5.016,1.776l.6.864a6.5,6.5,0,0,1,4.32-1.584c2.448,0,3.72,1.248,3.72,3.576v1.008h-4.3c-3.48,0-4.68,1.608-4.68,3.5,0,2.136,1.7,3.576,4.512,3.576a4.812,4.812,0,0,0,4.512-2.328V0h1.152V-7.944C152.664-11.04,150.936-12.624,147.84-12.624ZM147.168-.888c-2.208,0-3.48-1.008-3.48-2.64,0-1.44.912-2.52,3.5-2.52h4.272V-3.7A4.294,4.294,0,0,1,147.168-.888Zm20.592-11.64V-9.7a5.746,5.746,0,0,0-5.256-2.928,5.959,5.959,0,0,0-6.24,6.072,5.978,5.978,0,0,0,6.24,6.1,5.783,5.783,0,0,0,5.208-2.856V-1.2c0,3.336-1.56,4.872-4.9,4.872a7.422,7.422,0,0,1-5.064-1.824l-.648.912a8.275,8.275,0,0,0,5.736,1.992c4.032,0,6.072-1.9,6.072-6.1V-12.528ZM162.6-1.536a4.878,4.878,0,0,1-5.112-5.016,4.859,4.859,0,0,1,5.112-4.992,4.866,4.866,0,0,1,5.136,4.992A4.885,4.885,0,0,1,162.6-1.536Z" transform="translate(875 2465)" fill="#636363"/><line x2="92" transform="translate(912.5 2413.5)" fill="none" stroke="#707070" stroke-width="1" stroke-dasharray="5"/><path d="M2.229,16.8l9.563-9.562a1.681,1.681,0,0,1,2.384,0l1.589,1.589a1.681,1.681,0,0,1,0,2.384L8.993,18l6.778,6.778a1.681,1.681,0,0,1,0,2.384l-1.589,1.6a1.681,1.681,0,0,1-2.384,0L2.236,19.2A1.683,1.683,0,0,1,2.229,16.8Z" transform="translate(889.266 2396.253)" fill="#b6b6b6"/><path d="M15.772,16.8,6.209,7.242a1.681,1.681,0,0,0-2.384,0L2.237,8.831a1.681,1.681,0,0,0,0,2.384L9.008,18,2.23,24.778a1.681,1.681,0,0,0,0,2.384l1.589,1.6a1.681,1.681,0,0,0,2.384,0L15.765,19.2a1.683,1.683,0,0,0,.007-2.391Z" transform="translate(1011.266 2396.253)" fill="#b6b6b6"/></g></svg>